<?xml version="1.0" standalone="no"?><!DOCTYPE svg PUBLIC "-//W3C//DTD SVG 1.1//EN" "http://www.w3.org/Graphics/SVG/1.1/DTD/svg11.dtd"><svg t="1730448067414" class="icon" viewBox="0 0 1024 1024" version="1.1" xmlns="http://www.w3.org/2000/svg" p-id="2194" xmlns:xlink="http://www.w3.org/1999/xlink" width="200" height="200"><path d="M282.88 657.066667h288c11.946667 0 21.333333-9.386667 21.333333-21.333334s-9.386667-21.333333-21.333333-21.333333H282.88c-11.946667 0-21.333333 9.386667-21.333333 21.333333s9.386667 21.333333 21.333333 21.333334zM282.88 785.066667h458.666667c11.946667 0 21.333333-9.386667 21.333333-21.333334s-9.386667-21.333333-21.333333-21.333333H282.88c-11.946667 0-21.333333 9.386667-21.333333 21.333333s9.386667 21.333333 21.333333 21.333334z" fill="#666666" p-id="2195"></path><path d="M832 149.333333h-128v-42.666666c0-11.946667-9.386667-21.333333-21.333333-21.333334s-21.333333 9.386667-21.333334 21.333334v42.666666h-298.666666v-42.666666c0-11.946667-9.386667-21.333333-21.333334-21.333334s-21.333333 9.386667-21.333333 21.333334v42.666666h-128A106.666667 106.666667 0 0 0 85.333333 256v576A106.666667 106.666667 0 0 0 192 938.666667h640a106.666667 106.666667 0 0 0 106.666667-106.666667V256a106.666667 106.666667 0 0 0-106.666667-106.666667zM128 256c0-35.413333 28.586667-64 64-64h128v85.333333c0 11.946667 9.386667 21.333333 21.333333 21.333334s21.333333-9.386667 21.333334-21.333334v-85.333333h298.666666v85.333333c0 11.946667 9.386667 21.333333 21.333334 21.333334s21.333333-9.386667 21.333333-21.333334v-85.333333h128c35.413333 0 64 28.586667 64 64v128H128V256z m768 576c0 35.413333-28.586667 64-64 64h-640c-35.413333 0-64-28.586667-64-64V426.666667h768v405.333333z" fill="#666666" p-id="2196"></path></svg>