<?xml version="1.0" standalone="no"?><!DOCTYPE svg PUBLIC "-//W3C//DTD SVG 1.1//EN" "http://www.w3.org/Graphics/SVG/1.1/DTD/svg11.dtd"><svg t="1730448396845" class="icon" viewBox="0 0 1024 1024" version="1.1" xmlns="http://www.w3.org/2000/svg" p-id="9752" xmlns:xlink="http://www.w3.org/1999/xlink" width="200" height="200"><path d="M445.952 408.576h26.112v52.736H396.8v49.152h75.776V563.2h52.736v-52.736h26.112c43.008 0 75.776-36.352 75.776-78.848s-36.352-78.848-75.776-78.848h-26.112v-46.08h75.776V253.44h-75.776v-52.224h-52.736v52.736h-26.112c-43.008 0-75.776 36.352-75.776 78.848s32.768 75.776 75.264 75.776z m79.36 0h26.112c13.312 0 26.112 13.312 26.112 26.112 0 13.312-13.312 26.112-26.112 26.112h-26.112v-52.224z m-79.36-102.4h26.112v52.736h-26.112c-13.312 0-26.112-13.312-26.112-26.112 3.072-16.384 13.312-26.624 26.112-26.624zM946.688 780.8H77.312c-19.968 0-32.768-13.312-32.768-32.768s13.312-32.768 32.768-32.768h869.376c19.968 0 32.768 13.312 32.768 32.768s-12.8 32.768-32.768 32.768z m0 131.584H77.312c-19.968 0-32.768-13.312-32.768-32.768 0-19.968 13.312-32.768 32.768-32.768h869.376c19.968 0 32.768 13.312 32.768 32.768 0 19.456-12.8 32.768-32.768 32.768z" fill="#ffffff" p-id="9753"></path><path d="M880.64 648.704H156.16c-55.808 0-98.816-43.008-98.816-98.816V220.672c0-55.808 43.008-98.816 98.816-98.816h724.48c55.808 0 98.816 43.008 98.816 98.816v329.216c0 56.32-42.496 98.816-98.816 98.816z m-724.48-460.8c-19.968 0-32.768 13.312-32.768 32.768v329.216c0 19.968 13.312 32.768 32.768 32.768h724.48c19.968 0 32.768-13.312 32.768-32.768V220.672c0-19.968-13.312-32.768-32.768-32.768H156.16z" fill="#ffffff" p-id="9754"></path></svg>